<svg width="114" height="115" viewBox="0 0 114 115" fill="none" xmlns="http://www.w3.org/2000/svg">
<g clip-path="url(#clip0_1792_21346)">
<path d="M58.5582 32.4865L32.3599 58.6848L58.5582 84.8831L84.7565 58.6848L58.5582 32.4865Z" fill="white"/>
<path d="M32.3814 6.31366L6.18311 32.512L32.3814 58.7103L58.5797 32.512L32.3814 6.31366Z" fill="black"/>
<path d="M32.3799 56.66L56.5299 32.51L32.3799 8.36002L8.22988 32.51L32.3799 56.66ZM32.3799 4.27002L60.6199 32.51L32.3799 60.75L4.12988 32.51L32.3799 4.27002Z" fill="black"/>
<path d="M84.7525 6.31244L58.5542 32.5107L84.7525 58.7091L110.951 32.5107L84.7525 6.31244Z" fill="black"/>
<path d="M84.7498 56.66L108.9 32.51L84.7498 8.36002L60.5998 32.51L84.7498 56.66ZM84.7498 4.27002L112.99 32.51L84.7498 60.75L56.5098 32.51L84.7498 4.27002Z" fill="black"/>
<path d="M32.4078 58.7119L6.20947 84.9102L32.4078 111.108L58.6061 84.9102L32.4078 58.7119Z" fill="black"/>
<path d="M32.4002 109.06L56.5502 84.91L32.4002 60.76L8.25016 84.91L32.4002 109.06ZM32.4002 56.67L60.6402 84.91L32.4002 113.15L4.16016 84.91L32.4002 56.67Z" fill="black"/>
<path d="M84.7833 58.7348L58.585 84.9331L84.7833 111.131L110.982 84.9331L84.7833 58.7348Z" fill="black"/>
<path d="M84.7698 109.07L108.92 84.9201L84.7698 60.7701L60.6198 84.9201L84.7698 109.07ZM84.7698 56.6801L113.01 84.9201L84.7698 113.16L56.5298 84.9201L84.7698 56.6801Z" fill="black"/>
<path d="M28.7222 2.67071L2.52393 28.869L28.7222 55.0673L54.9205 28.869L28.7222 2.67071Z" fill="#8650B2"/>
<path d="M28.73 53.01L52.88 28.86L28.73 4.72L4.57998 28.87L28.73 53.02V53.01ZM28.73 0.619995L56.97 28.86L28.73 57.1L0.47998 28.87L28.73 0.619995Z" fill="black"/>
<path d="M81.1006 2.66242L54.9023 28.8607L81.1006 55.059L107.299 28.8607L81.1006 2.66242Z" fill="#8650B2"/>
<path d="M81.0999 53.01L105.25 28.86L81.0999 4.71L56.9499 28.86L81.0999 53.01ZM81.0999 0.619995L109.34 28.86L81.0999 57.1L52.8599 28.86L81.0999 0.619995Z" fill="black"/>
<path d="M28.7388 55.0689L2.54053 81.2672L28.7388 107.466L54.9371 81.2672L28.7388 55.0689Z" fill="#8650B2"/>
<path d="M28.74 105.41L52.89 81.26L28.74 57.11L4.59 81.26L28.74 105.41ZM28.74 53.02L56.98 81.26L28.74 109.5L0.5 81.27L28.74 53.03V53.02Z" fill="black"/>
<path d="M81.1143 55.0818L54.916 81.2802L81.1143 107.478L107.313 81.2802L81.1143 55.0818Z" fill="#8650B2"/>
<path d="M81.1199 105.43L105.27 81.28L81.1199 57.13L56.9699 81.28L81.1199 105.43ZM81.1199 53.04L109.36 81.28L81.1199 109.52L52.8799 81.28L81.1199 53.04Z" fill="black"/>
</g>
<defs>
<clipPath id="clip0_1792_21346">
<rect width="113.59" height="114.23" fill="white"/>
</clipPath>
</defs>
</svg>
